<?xml version="1.0" encoding="UTF-8" standalone="no"?>
<!-- Created with Inkscape (http://www.inkscape.org/) -->

<svg
   xmlns:dc="http://purl.org/dc/elements/1.1/"
   xmlns:cc="http://creativecommons.org/ns#"
   xmlns:rdf="http://www.w3.org/1999/02/22-rdf-syntax-ns#"
   xmlns:svg="http://www.w3.org/2000/svg"
   xmlns="http://www.w3.org/2000/svg"
   xmlns:sodipodi="http://sodipodi.sourceforge.net/DTD/sodipodi-0.dtd"
   xmlns:inkscape="http://www.inkscape.org/namespaces/inkscape"
   width="799.98346"
   height="800.00122"
   id="svg3016"
   version="1.1"
   inkscape:version="0.48.4 r"
   sodipodi:docname="board.svg">
  <defs
     id="defs3018" />
  <sodipodi:namedview
     id="base"
     pagecolor="#ffffff"
     bordercolor="#666666"
     borderopacity="1.0"
     inkscape:pageopacity="0"
     inkscape:pageshadow="2"
     inkscape:zoom="0.59"
     inkscape:cx="101.00865"
     inkscape:cy="427.95556"
     inkscape:document-units="px"
     inkscape:current-layer="layer1"
     showgrid="false"
     inkscape:window-width="1299"
     inkscape:window-height="745"
     inkscape:window-x="59"
     inkscape:window-y="-8"
     inkscape:window-maximized="1"
     fit-margin-top="0"
     fit-margin-left="0"
     fit-margin-right="0"
     fit-margin-bottom="0"
     inkscape:showpageshadow="false"
     showborder="false" />
  <metadata
     id="metadata3021">
    <rdf:RDF>
      <cc:Work
         rdf:about="">
        <dc:format>image/svg+xml</dc:format>
        <dc:type
           rdf:resource="http://purl.org/dc/dcmitype/StillImage" />
        <dc:title />
      </cc:Work>
    </rdf:RDF>
  </metadata>
  <g
     inkscape:label="Layer 1"
     inkscape:groupmode="layer"
     id="layer1"
     transform="translate(-5.1564054,-159.37498)">
    <path
       style="stroke:#000000;stroke-width:15.98945236;stroke-linecap:round;stroke-linejoin:round;stroke-miterlimit:4;stroke-opacity:1;stroke-dasharray:none"
       d="m 557.70965,167.35952 -40.05668,19.58547 c 9.2781,60.34309 9.17601,121.74034 10.86864,182.58021 0.50276,17.0114 0.84959,34.00966 1.09369,51.02291 -39.09047,-2.73536 -78.1292,-5.72879 -117.19658,-8.74083 -37.58138,-2.52952 -75.20097,-4.87399 -112.7876,-7.43715 -0.50973,-46.5047 -1.75749,-92.99605 -2.28992,-139.49818 -1.09222,-26.34557 -3.40923,-52.55296 -5.22923,-78.84549 l -40.15924,20.77063 c 4.72195,25.12524 7.9251,50.43296 10.4243,75.85288 2.96852,39.91333 6.25035,79.80387 8.85213,119.73495 -46.87021,-3.38027 -93.68004,-7.2884 -140.30094,-12.59278 -25.9435,-3.30473 -52.263843,-6.35916 -77.34495,-12.88905 l -40.432646,22.72622 c 27.565235,4.66034 55.587975,7.25588 83.531179,9.8668 58.491187,4.6334 117.088167,7.95177 175.709407,11.20016 1.85712,31.37211 3.18256,62.76998 3.48617,94.2235 0.21964,22.75233 -0.34282,45.48517 -0.51266,68.23792 -0.48703,33.75603 -1.80931,67.46116 -3.58871,101.15692 -19.99954,0.35868 -39.97695,0.65027 -59.9825,0.56297 -32.68091,-1.13088 -65.35886,-2.81728 -97.92015,-5.54081 -19.034809,-2.13 -38.057739,-4.72487 -56.496328,-9.51123 l -38.142713,22.37068 c 19.786373,4.04093 40.022202,6.37883 60.187562,8.47416 32.829269,2.61614 65.768079,4.28742 98.706239,5.42231 30.86718,0.35102 61.71635,-0.79041 92.55418,-1.98522 -3.49492,60.21365 -8.30194,120.37628 -12.5775,180.53577 -1.95429,22.23671 -3.15402,44.55002 -0.20507,66.72683 l 39.09968,-20.41512 c -4.76683,-20.61935 -5.82663,-41.66996 -5.6394,-62.78601 -0.1123,-55.01124 1.4732,-109.99722 3.21277,-164.97997 6.25724,-0.22875 12.50624,-0.43159 18.76374,-0.62226 72.27966,-0.59788 144.56388,0.60999 216.82562,2.22224 0.2262,16.96586 0.52141,33.64144 0.95698,59.64528 1.62048,56.86688 1.77218,113.8611 7.69006,170.52079 0.0986,4.83686 1.61484,9.46286 1.64055,14.28165 l 40.46682,-20.26691 c -1.62834,-4.23393 -3.43131,-8.37896 -4.23807,-12.85945 -12.14795,-54.02393 -16.05348,-109.15836 -19.65239,-164.17996 -0.97975,-19.66436 -1.70721,-33.72196 -2.32409,-46.57842 14.68856,0.34192 29.36887,0.68851 44.0555,1.03705 56.26101,1.38574 112.522,2.98336 168.80545,3.3482 l 29.59822,-18.87434 c -57.75778,1.44926 -115.48802,1.13732 -173.24861,-0.35555 -23.3148,-0.52005 -46.64892,-1.0624 -69.96247,-1.62966 -0.6001,-14.71444 -1.05951,-30.32784 -1.53805,-53.89701 -1.31362,-64.70421 -1.06071,-129.42334 -0.10252,-194.13593 31.80881,2.67143 63.61104,5.34246 95.42516,7.97046 23.20918,2.15176 46.65354,4.37316 69.7574,0.6815 8.63544,-1.2823 16.85963,-3.68663 24.84745,-6.57787 10.71652,-4.54207 12.5642,-5.35703 20.26761,-9.06679 12.92456,-5.35426 19.65968,-9.46596 27.20576,-13.06684 -4.9607,4.73932 11.95858,-7.96389 -16.16627,0.17779 -5.78012,2.16177 -11.91249,3.68928 -18.08016,4.88894 -24.2551,5.25184 -49.33328,4.69536 -74.23475,3.40746 -42.9583,-1.76379 -85.86236,-4.26921 -128.7146,-7.14083 0.36205,-21.58296 0.79755,-43.16391 1.26462,-64.74163 1.75048,-63.31794 4.97088,-126.67041 3.82792,-190.01736 z M 299.802,422.20739 c 28.68926,1.59795 57.35758,3.24371 86.02621,5.06673 48.03045,3.71021 96.03317,7.68428 144.02633,11.70386 0.68792,68.9535 -0.21191,137.92179 -0.10252,206.87686 0.0278,17.599 0.1301,30.50114 0.23924,42.4302 -21.06813,-0.53587 -42.13005,-1.10031 -63.19524,-1.71854 -29.47515,-0.86501 -58.94008,-2.13291 -88.41863,-2.90374 -11.51753,-0.30117 -23.03362,-0.39467 -34.55402,-0.5926 -16.21072,0.17649 -32.42852,0.48091 -48.63538,0.80001 1.19092,-37.35984 2.37224,-74.72237 3.04184,-112.0904 0.81187,-47.13736 1.71647,-88.03297 1.64057,-135.11293 -0.008,-4.81855 -0.0384,-9.64099 -0.0683,-14.45945 z"
       id="path5561"
       inkscape:connector-curvature="0"
       sodipodi:nodetypes="ccccccccccccccccsccccccccccccccccccccccccccccscccccccccccccccscsscccsc" />
  </g>
</svg>
