<?xml version="1.0" encoding="UTF-8" standalone="no"?>
<!-- Created with Inkscape (http://www.inkscape.org/) -->

<svg
   xmlns:dc="http://purl.org/dc/elements/1.1/"
   xmlns:cc="http://creativecommons.org/ns#"
   xmlns:rdf="http://www.w3.org/1999/02/22-rdf-syntax-ns#"
   xmlns:svg="http://www.w3.org/2000/svg"
   xmlns="http://www.w3.org/2000/svg"
   xmlns:sodipodi="http://sodipodi.sourceforge.net/DTD/sodipodi-0.dtd"
   xmlns:inkscape="http://www.inkscape.org/namespaces/inkscape"
   width="144.21906"
   height="142.49477"
   id="svg2"
   version="1.1"
   inkscape:version="0.48.4 r"
   sodipodi:docname="o.svg">
  <defs
     id="defs4">
    <inkscape:path-effect
       effect="spiro"
       id="path-effect2995"
       is_visible="true" />
    <inkscape:path-effect
       effect="spiro"
       id="path-effect2991"
       is_visible="true" />
  </defs>
  <sodipodi:namedview
     id="base"
     pagecolor="#ffffff"
     bordercolor="#666666"
     borderopacity="1.0"
     inkscape:pageopacity="0.0"
     inkscape:pageshadow="2"
     inkscape:zoom="0.49497475"
     inkscape:cx="-49.58873"
     inkscape:cy="-123.60809"
     inkscape:document-units="px"
     inkscape:current-layer="layer1"
     showgrid="false"
     inkscape:window-width="1299"
     inkscape:window-height="745"
     inkscape:window-x="59"
     inkscape:window-y="-8"
     inkscape:window-maximized="1"
     fit-margin-top="0"
     fit-margin-left="0"
     fit-margin-right="0"
     fit-margin-bottom="0" />
  <metadata
     id="metadata7">
    <rdf:RDF>
      <cc:Work
         rdf:about="">
        <dc:format>image/svg+xml</dc:format>
        <dc:type
           rdf:resource="http://purl.org/dc/dcmitype/StillImage" />
        <dc:title />
      </cc:Work>
    </rdf:RDF>
  </metadata>
  <g
     inkscape:label="Layer 1"
     inkscape:groupmode="layer"
     id="layer1"
     transform="translate(-333.39671,-374.61433)">
    <path
       style="fill:#000000;stroke:#000000;stroke-width:10.69099998;stroke-linecap:round;stroke-linejoin:round;stroke-miterlimit:4;stroke-opacity:1;stroke-dasharray:none"
       id="path5671"
       d="m 344.70526,399.62953 c 4.69288,-6.60239 11.93859,-9.6818 18.71797,-12.34633 6.72359,-2.93016 13.97748,-3.82576 20.58484,-5.33505 5.42593,-0.32707 10.79496,-1.42921 16.22777,-1.60882 10.12754,-0.0643 17.28417,-1.08411 25.97233,0.5143 7.79152,2.38183 14.56499,7.54938 20.30297,12.34784 8.13725,7.98171 16.64119,16.51111 21.38388,25.98237 3.76579,8.05941 4.88242,16.85731 4.17524,24.85888 -0.43298,5.55289 0.006,14.18457 -2.90379,18.79543 -3.04636,6.70397 -3.02791,9.45163 -7.75632,15.71156 -10.67602,14.38878 -17.00739,17.94021 -30.17144,24.46633 -14.83072,5.49868 -16.28807,6.16634 -24.70769,7.08071 -13.77282,2.71089 -26.03947,2.54596 -39.48217,-3.74478 -8.488,-4.69879 -13.53232,-12.8004 -18.13146,-20.25573 -5.13984,-8.90227 -10.12531,-17.67085 -10.17518,-27.41517 0.0147,-8.50055 1.27236,-16.6102 2.74507,-24.32853 1.29924,-6.63438 3.15457,-13.40045 6.89387,-18.49069 4.2585,-3.85206 9.74215,-5.94518 14.39728,-8.48163 17.68154,-11.85271 27.56295,-14.64086 48.62139,-11.97206 l 0,0 c -18.59814,3.74757 -31.7901,7.35946 -42.26964,21.65883 -6.98294,9.35014 -11.15721,31.12438 -9.74903,41.27188 2.81902,18.3207 6.55231,25.74047 18.08797,37.59877 1.76437,1.03102 8.33438,5.79592 16.75908,7.70033 5.127,0.0256 13.56384,0.53453 25.45589,-6.2832 8.83351,-4.39223 17.30368,-15.47355 21.57531,-23.73063 4.46561,-9.5595 7.66007,-19.78123 8.75085,-29.53112 0.70903,-8.26087 0.57089,-16.52878 -2.7484,-23.57532 -5.73928,-9.5783 -13.13352,-18.92404 -21.4275,-25.10293 -3.14762,-2.37034 -6.43112,-4.55452 -9.55251,-6.96338 -34.87504,-11.66329 -19.0697,0.67966 -19.0697,0.67966 34.38201,-2.27332 -24.46395,2.08335 -31.59482,11.38834 z"
       inkscape:connector-curvature="0"
       sodipodi:nodetypes="ccccccccccccccccccccccccccccccccc" />
    <flowRoot
       xml:space="preserve"
       id="flowRoot3085"
       style="font-size:64px;font-style:normal;font-variant:normal;font-weight:normal;font-stretch:normal;line-height:125%;letter-spacing:0px;word-spacing:0px;fill:#000000;fill-opacity:1;stroke:none;font-family:PUNK DINGBATS;-inkscape-font-specification:PUNK DINGBATS"><flowRegion
         id="flowRegion3087"><rect
           id="rect3089"
           width="646.49762"
           height="377.79706"
           x="-903.07635"
           y="300.80869"
           style="font-size:64px;font-style:normal;font-variant:normal;font-weight:normal;font-stretch:normal;font-family:PUNK DINGBATS;-inkscape-font-specification:PUNK DINGBATS" /></flowRegion><flowPara
         id="flowPara3091" /></flowRoot>    <flowRoot
       xml:space="preserve"
       id="flowRoot3093"
       style="font-size:40px;font-style:normal;font-variant:normal;font-weight:normal;font-stretch:normal;line-height:125%;letter-spacing:0px;word-spacing:0px;fill:#000000;fill-opacity:1;stroke:none;font-family:PUNK DINGBATS;-inkscape-font-specification:PUNK DINGBATS"><flowRegion
         id="flowRegion3095"><rect
           id="rect3097"
           width="327.28943"
           height="395.9798"
           x="-858.62964"
           y="181.61069"
           style="font-style:normal;font-variant:normal;font-weight:normal;font-stretch:normal;font-family:PUNK DINGBATS;-inkscape-font-specification:PUNK DINGBATS" /></flowRegion><flowPara
         id="flowPara3099" /></flowRoot>    <text
       xml:space="preserve"
       style="font-size:201.48999023px;font-style:normal;font-variant:normal;font-weight:normal;font-stretch:normal;line-height:125%;letter-spacing:0px;word-spacing:0px;fill:#000000;fill-opacity:1;stroke:none;font-family:'Flaming Stars &amp; Splatters';-inkscape-font-specification:'Flaming Stars &amp; Splatters'"
       x="-801.63318"
       y="320.73196"
       id="text3101"
       sodipodi:linespacing="125%"
       transform="scale(1.0383374,0.9630781)"><tspan
         sodipodi:role="line"
         x="-801.63318"
         y="320.73196"
         id="tspan3121" /></text>
  </g>
</svg>
